<svg width="26" height="30" viewBox="0 0 26 30" fill="none" xmlns="http://www.w3.org/2000/svg">
<path d="M21.5971 15.854C21.5824 13.3949 22.7191 11.5416 25.0146 10.1751C23.7308 8.37227 21.7884 7.38072 19.228 7.18962C16.8037 7.00213 14.1514 8.57419 13.1802 8.57419C12.1538 8.57419 9.80679 7.25453 7.96007 7.25453C4.14891 7.31222 0.0986328 10.2328 0.0986328 16.1749C0.0986328 17.9308 0.426039 19.7444 1.08085 21.6121C1.95639 24.0712 5.11273 30.0962 8.40519 29.9988C10.1268 29.9592 11.3445 28.8018 13.5848 28.8018C15.759 28.8018 16.8847 29.9988 18.8049 29.9988C22.1268 29.952 24.9815 24.475 25.8129 22.0088C21.358 19.9499 21.5971 15.9801 21.5971 15.854ZM17.7308 4.85678C19.5959 2.68619 19.4267 0.710309 19.3715 0C17.7234 0.0937464 15.8178 1.09972 14.7326 2.33645C13.537 3.66332 12.8344 5.30388 12.9852 7.15357C14.7657 7.28698 16.3917 6.38917 17.7308 4.85678Z" fill="white"/>
</svg>
