<svg width="31" height="30" viewBox="0 0 31 30" fill="none" xmlns="http://www.w3.org/2000/svg">
<path d="M0.484375 15.0902C0.486141 22.5148 5.88505 28.8365 13.2179 30V19.4519H9.38888V15.0902H13.2224V11.77C13.051 10.1967 13.5884 8.62865 14.6888 7.4912C15.7892 6.35375 17.3386 5.76475 18.9168 5.88395C20.0495 5.90226 21.1793 6.00314 22.2975 6.18581V9.89702H20.3898C19.733 9.811 19.0727 10.0279 18.5949 10.4866C18.117 10.9454 17.8734 11.5963 17.9327 12.2559V15.0902H22.1148L21.4463 19.4534H17.9327V30C25.8629 28.7467 31.4238 21.5042 30.587 13.5193C29.7499 5.53437 22.8079 -0.397601 14.7902 0.0208348C6.7724 0.439271 0.485658 7.06162 0.484375 15.0902Z" fill="black"/>
</svg>
