<svg width="31" height="30" viewBox="0 0 31 30" fill="none" xmlns="http://www.w3.org/2000/svg">
<path d="M15.4711 30C11.3792 30 10.8969 29.9784 9.30004 29.9085C8.05482 29.8676 6.82573 29.6144 5.66565 29.16C3.65851 28.3789 2.0714 26.7913 1.29106 24.7838C0.85412 23.6194 0.618442 22.3894 0.594124 21.146C0.500977 19.5526 0.500977 19.0303 0.500977 14.9701C0.500977 10.8666 0.5226 10.3876 0.594124 8.79907C0.618974 7.55744 0.854636 6.32903 1.29106 5.16633C2.07055 3.15624 3.66024 1.56717 5.67064 0.788423C6.83273 0.349651 8.06144 0.113356 9.30337 0.0898202C10.8919 -1.67303e-07 11.4141 0 15.4711 0C19.5962 0 20.0703 0.0216233 21.6421 0.0898202C22.8871 0.113556 24.1192 0.349817 25.2848 0.788423C27.2946 1.56805 28.884 3.15682 29.6644 5.16633C30.1087 6.34598 30.3455 7.59358 30.3647 8.85396C30.4578 10.4474 30.4578 10.9681 30.4578 15.0266C30.4578 19.0852 30.4345 19.6174 30.3647 21.1926C30.3399 22.4371 30.1035 23.6683 29.6661 24.8337C28.8836 26.8425 27.2941 28.4308 25.2848 29.2116C24.1208 29.6477 22.8914 29.8834 21.6488 29.9085C20.0603 30 19.5396 30 15.4711 30ZM15.4146 2.63307C11.346 2.63307 10.9235 2.65303 9.33497 2.72455C8.38685 2.73713 7.44788 2.91209 6.55886 3.24185C5.24609 3.74419 4.20728 4.77878 3.69958 6.08949C3.36728 6.98819 3.19228 7.93742 3.18228 8.89554C3.09412 10.5073 3.09412 10.9298 3.09412 14.9701C3.09412 18.9621 3.10909 19.4461 3.18228 21.0479C3.19718 21.9963 3.37207 22.9355 3.69958 23.8257C4.20803 25.1356 5.24665 26.1693 6.55886 26.6717C7.44728 27.0037 8.38662 27.1786 9.33497 27.189C10.9451 27.2821 11.3692 27.2821 15.4146 27.2821C19.4947 27.2821 19.9172 27.2621 21.4924 27.189C22.4412 27.1775 23.3808 27.0025 24.2702 26.6717C25.5749 26.165 26.607 25.1336 27.1145 23.829C27.4462 22.9296 27.621 21.9799 27.6318 21.0213H27.6501C27.7216 19.4311 27.7216 19.007 27.7216 14.9434C27.7216 10.8799 27.7033 10.4524 27.6318 8.86394C27.6168 7.9166 27.4418 6.97858 27.1145 6.08949C26.6082 4.78307 25.5759 3.74967 24.2702 3.24185C23.381 2.91043 22.4412 2.73541 21.4924 2.72455C19.884 2.63307 19.4631 2.63307 15.4146 2.63307ZM15.4711 22.653C12.3605 22.655 9.55523 20.7829 8.36337 17.91C7.17148 15.0369 7.82784 11.7287 10.0263 9.52839C12.2248 7.32801 15.5323 6.6688 18.4064 7.85818C21.2805 9.04757 23.1549 11.8513 23.1557 14.9617C23.1511 19.2051 19.7143 22.6447 15.4711 22.653ZM15.4711 9.9684C12.7151 9.9684 10.481 12.2026 10.481 14.9584C10.481 17.7144 12.7151 19.9484 15.4711 19.9484C18.2269 19.9484 20.4611 17.7144 20.4611 14.9584C20.4547 12.2051 18.2243 9.9748 15.4711 9.9684ZM23.4552 8.78245C22.4661 8.77878 21.6669 7.97503 21.6687 6.98604C21.6706 5.99706 22.4728 5.19629 23.4618 5.19629C24.4507 5.19629 25.2529 5.99704 25.2549 6.98603C25.2552 7.46319 25.0656 7.92087 24.7279 8.25795C24.3903 8.59504 23.9322 8.78377 23.4552 8.78245Z" fill="black"/>
</svg>
