<svg width="25" height="27" viewBox="0 0 25 27" fill="none" xmlns="http://www.w3.org/2000/svg">
<path d="M13.1427 13.2262L17.483 8.88591L3.46402 1.00673C2.5349 0.504741 1.66449 0.434287 0.901232 0.983246L13.1427 13.2262ZM18.2228 18.3078L22.7348 15.7699C23.6155 15.2767 24.0984 14.5781 24.0984 13.8031C24.0984 13.0295 23.6155 12.3294 22.7363 11.8362L18.6514 9.54202L14.0528 14.1392L18.2228 18.3078ZM0.14678 2.05034C0.0528409 2.3395 0 2.66242 0 3.01616V24.6002C0 25.1595 0.123296 25.6409 0.346402 26.024L12.2312 14.1377L0.14678 2.05034ZM13.1427 15.0478L1.32396 26.868C1.55 26.9546 1.79366 27.0001 2.05052 27.0001C2.50848 27.0001 2.98552 26.8651 3.47136 26.595L17.0559 18.9668L13.1427 15.0478Z" fill="white"/>
</svg>
