<svg width="18" height="18" viewBox="0 0 18 18" fill="none" xmlns="http://www.w3.org/2000/svg">
<path d="M5 3H3V5H5V3ZM0 2.25C0 1.65326 0.237053 1.08097 0.65901 0.65901C1.08097 0.237053 1.65326 0 2.25 0H5.75C6.34674 0 6.91903 0.237053 7.34099 0.65901C7.76295 1.08097 8 1.65326 8 2.25V5.75C8 6.34674 7.76295 6.91903 7.34099 7.34099C6.91903 7.76295 6.34674 8 5.75 8H2.25C1.65326 8 1.08097 7.76295 0.65901 7.34099C0.237053 6.91903 0 6.34674 0 5.75V2.25ZM2.25 1.5C2.05109 1.5 1.86032 1.57902 1.71967 1.71967C1.57902 1.86032 1.5 2.05109 1.5 2.25V5.75C1.5 6.164 1.836 6.5 2.25 6.5H5.75C5.94891 6.5 6.13968 6.42098 6.28033 6.28033C6.42098 6.13968 6.5 5.94891 6.5 5.75V2.25C6.5 2.05109 6.42098 1.86032 6.28033 1.71967C6.13968 1.57902 5.94891 1.5 5.75 1.5H2.25ZM3 13H5V15H3V13ZM0 12.25C0 11.6533 0.237053 11.081 0.65901 10.659C1.08097 10.2371 1.65326 10 2.25 10H5.75C6.34674 10 6.91903 10.2371 7.34099 10.659C7.76295 11.081 8 11.6533 8 12.25V15.75C8 16.3467 7.76295 16.919 7.34099 17.341C6.91903 17.7629 6.34674 18 5.75 18H2.25C1.65326 18 1.08097 17.7629 0.65901 17.341C0.237053 16.919 0 16.3467 0 15.75V12.25ZM2.25 11.5C2.05109 11.5 1.86032 11.579 1.71967 11.7197C1.57902 11.8603 1.5 12.0511 1.5 12.25V15.75C1.5 16.164 1.836 16.5 2.25 16.5H5.75C5.94891 16.5 6.13968 16.421 6.28033 16.2803C6.42098 16.1397 6.5 15.9489 6.5 15.75V12.25C6.5 12.0511 6.42098 11.8603 6.28033 11.7197C6.13968 11.579 5.94891 11.5 5.75 11.5H2.25ZM15 3H13V5H15V3ZM12.25 0C11.6533 0 11.081 0.237053 10.659 0.65901C10.2371 1.08097 10 1.65326 10 2.25V5.75C10 6.34674 10.2371 6.91903 10.659 7.34099C11.081 7.76295 11.6533 8 12.25 8H15.75C16.3467 8 16.919 7.76295 17.341 7.34099C17.7629 6.91903 18 6.34674 18 5.75V2.25C18 1.65326 17.7629 1.08097 17.341 0.65901C16.919 0.237053 16.3467 0 15.75 0H12.25ZM11.5 2.25C11.5 2.05109 11.579 1.86032 11.7197 1.71967C11.8603 1.57902 12.0511 1.5 12.25 1.5H15.75C15.9489 1.5 16.1397 1.57902 16.2803 1.71967C16.421 1.86032 16.5 2.05109 16.5 2.25V5.75C16.5 5.94891 16.421 6.13968 16.2803 6.28033C16.1397 6.42098 15.9489 6.5 15.75 6.5H12.25C12.0511 6.5 11.8603 6.42098 11.7197 6.28033C11.579 6.13968 11.5 5.94891 11.5 5.75V2.25ZM10 10H12.75V12.75H10V10ZM15.25 12.75H12.75V15.25H10V18H12.75V15.25H15.25V18H18V15.25H15.25V12.75ZM15.25 12.75V10H18V12.75H15.25Z" fill="#fff"/>
</svg>
