<svg width="943" height="943" viewBox="0 0 943 943" fill="none" xmlns="http://www.w3.org/2000/svg">
<path fill-rule="evenodd" clip-rule="evenodd" d="M228.571 0H257.143V28.5714H228.571V0ZM314.286 0H371.429V28.5714H314.286V0ZM400 0H428.571V28.5714H400V0ZM457.143 0H485.714V28.5714H457.143V0ZM514.286 0H542.857V28.5714H571.429V57.1429H514.286V0ZM600 0H628.571V57.1429H685.714V85.7143H714.286V114.286H657.143V85.7143H628.571V142.857H600V257.143H571.429V285.714H542.857V257.143H514.286V342.857H485.714V400H457.143V428.571H485.714V457.143H457.143V542.857H428.571V571.429H457.143V542.857H485.714V571.429H514.286V600H542.857V514.286H514.286V485.714H542.857V457.143H571.429V428.571H485.714V400H514.286V371.429H542.857V400H657.143V428.571H600V514.286H571.429V542.857H600V571.429H571.429V628.571H514.286V685.714H457.143V714.286H514.286V685.714H571.429V714.286H542.857V742.857H514.286V771.429H485.714V742.857H457.143V771.429H428.571V742.857H371.429V771.429H342.857V685.714H371.429V714.286H428.571V685.714H400V657.143H428.571V628.571H400V571.429H371.429V600H342.857V542.857H400V485.714H428.571V400H400V428.571H342.857V457.143H314.286V428.571H285.714V457.143H314.286V485.714H257.143V457.143H228.571V400H200V371.429H228.571V342.857H257.143V314.286H285.714V285.714H342.857V314.286H371.429V371.429H314.286V342.857H285.714V371.429H257.143V400H371.429V371.429H428.571V342.857H457.143V314.286H400V285.714H342.857V257.143H400V228.571H428.571V200H457.143V285.714H485.714V228.571H514.286V171.429H542.857V228.571H571.429V142.857H514.286V171.429H485.714V200H457.143V85.7143H514.286V114.286H542.857V85.7143H571.429V114.286H600V85.7143H571.429V57.1429H600V0ZM457.143 600H485.714V657.143H457.143V600ZM257.143 28.5714H314.286V85.7143H285.714V57.1429H257.143V28.5714ZM342.857 57.1429H400V114.286H342.857V57.1429ZM428.571 57.1429H457.143V85.7143H428.571V57.1429ZM257.143 114.286H285.714V142.857H257.143V114.286ZM314.286 114.286H342.857V142.857H314.286V114.286ZM285.714 142.857H314.286V200H342.857V257.143H285.714V285.714H257.143V228.571H285.714V142.857ZM342.857 142.857H400V171.429H371.429V200H342.857V142.857ZM657.143 142.857H714.286V200H685.714V171.429H657.143V142.857ZM228.571 171.429H257.143V228.571H228.571V171.429ZM400 171.429H428.571V200H400V171.429ZM628.571 171.429H657.143V257.143H685.714V314.286H628.571V285.714H600V257.143H628.571V171.429ZM371.429 200H400V228.571H371.429V200ZM0 228.571H57.1429V257.143H85.7143V228.571H142.857V285.714H200V257.143H228.571V342.857H200V314.286H171.429V342.857H200V371.429H171.429V400H200V428.571H171.429V457.143H142.857V428.571H114.286V400H142.857V342.857H114.286V400H85.7143V457.143H142.857V485.714H114.286V542.857H57.1429V457.143H0V428.571H57.1429V400H0V342.857H28.5714V371.429H85.7143V342.857H57.1429V314.286H114.286V285.714H57.1429V314.286H0V228.571ZM171.429 228.571H200V257.143H171.429V228.571ZM742.857 228.571H771.429V257.143H742.857V228.571ZM914.286 228.571H942.857V257.143H914.286V228.571ZM771.429 257.143H828.571V314.286H800V285.714H771.429V257.143ZM857.143 257.143H914.286V285.714H942.857V314.286H885.714V285.714H857.143V257.143ZM571.429 285.714H600V371.429H571.429V285.714ZM714.286 285.714H742.857V314.286H800V400H771.429V371.429H742.857V342.857H685.714V314.286H714.286V285.714ZM828.571 314.286H885.714V342.857H828.571V314.286ZM657.143 342.857H685.714V400H657.143V342.857ZM885.714 342.857H942.857V371.429H885.714V342.857ZM714.286 371.429H742.857V400H714.286V371.429ZM657.143 428.571H685.714V457.143H657.143V428.571ZM714.286 428.571H742.857V457.143H771.429V428.571H828.571V457.143H857.143V485.714H828.571V514.286H800V542.857H828.571V571.429H800V600H771.429V571.429H714.286V542.857H771.429V514.286H742.857V485.714H714.286V514.286H685.714V457.143H714.286V428.571ZM857.143 428.571H885.714V457.143H857.143V428.571ZM914.286 428.571H942.857V571.429H857.143V542.857H914.286V514.286H885.714V457.143H914.286V428.571ZM171.429 457.143H228.571V571.429H257.143V600H228.571V657.143H257.143V714.286H285.714V742.857H228.571V685.714H200V657.143H142.857V628.571H28.5714V685.714H85.7143V714.286H0V485.714H28.5714V542.857H57.1429V571.429H28.5714V600H57.1429V571.429H114.286V600H142.857V571.429H200V542.857H142.857V485.714H171.429V514.286H200V485.714H171.429V457.143ZM171.429 600H200V628.571H171.429V600ZM371.429 457.143H400V485.714H371.429V457.143ZM628.571 457.143H657.143V485.714H628.571V457.143ZM314.286 485.714H371.429V514.286H342.857V542.857H314.286V485.714ZM600 514.286H685.714V542.857H600V514.286ZM257.143 542.857H314.286V571.429H257.143V542.857ZM657.143 571.429H714.286V600H685.714V657.143H657.143V571.429ZM285.714 600H314.286V628.571H285.714V600ZM800 600H857.143V628.571H800V600ZM885.714 600H914.286V628.571H942.857V657.143H885.714V600ZM342.857 628.571H371.429V657.143H342.857V628.571ZM571.429 628.571H628.571V657.143H600V685.714H571.429V628.571ZM714.286 628.571H771.429V657.143H742.857V685.714H714.286V628.571ZM114.286 657.143H142.857V685.714H200V714.286H114.286V657.143ZM285.714 657.143H314.286V714.286H285.714V657.143ZM628.571 657.143H657.143V685.714H628.571V657.143ZM857.143 657.143H885.714V685.714H857.143V657.143ZM885.714 685.714H914.286V742.857H885.714V771.429H942.857V828.571H885.714V800H857.143V828.571H828.571V771.429H857.143V714.286H885.714V685.714ZM628.571 714.286H657.143V742.857H685.714V828.571H657.143V771.429H628.571V714.286ZM285.714 742.857H314.286V800H257.143V771.429H285.714V742.857ZM542.857 742.857H600V771.429H542.857V742.857ZM457.143 771.429H485.714V800H457.143V771.429ZM514.286 771.429H542.857V800H514.286V771.429ZM228.571 800H257.143V857.143H228.571V800ZM314.286 800H400V828.571H314.286V800ZM428.571 800H457.143V857.143H485.714V885.714H400V914.286H314.286V857.143H428.571V800ZM571.429 800H600V828.571H657.143V857.143H600V885.714H571.429V942.857H542.857V885.714H514.286V857.143H542.857V828.571H571.429V800ZM485.714 828.571H514.286V857.143H485.714V828.571ZM771.429 828.571H800V857.143H771.429V828.571ZM257.143 857.143H285.714V885.714H257.143V857.143ZM657.143 857.143H742.857V885.714H657.143V857.143ZM800 857.143H885.714V885.714H914.286V857.143H942.857V914.286H828.571V885.714H800V857.143ZM228.571 885.714H257.143V914.286H285.714V942.857H228.571V885.714ZM628.571 885.714H657.143V914.286H628.571V885.714ZM771.429 885.714H800V914.286H828.571V942.857H657.143V914.286H771.429V885.714ZM400 914.286H428.571V942.857H400V914.286ZM457.143 914.286H514.286V942.857H457.143V914.286Z" fill="white"/>
<path fill-rule="evenodd" clip-rule="evenodd" d="M0 0H200V200H0V0ZM28.5714 28.5714H171.429V171.429H28.5714V28.5714ZM57.1429 57.1429H142.857V142.857H57.1429V57.1429ZM742.857 0H942.857V200H742.857V0ZM771.429 28.5714H914.286V171.429H771.429V28.5714ZM800 57.1429H885.714V142.857H800V57.1429ZM0 742.857H200V942.857H0V742.857ZM28.5714 771.429H171.429V914.286H28.5714V771.429ZM57.1429 800H142.857V885.714H57.1429V800ZM685.714 685.714H828.571V828.571H685.714V685.714ZM714.286 714.286H800V800H714.286V714.286ZM742.857 742.857H771.429V771.429H742.857V742.857Z" fill="white"/>
</svg>
