<svg width="12" height="12" viewBox="0 0 12 12" fill="none" xmlns="http://www.w3.org/2000/svg">
<path d="M5.83333 11.6666C9.05501 11.6666 11.6667 9.05495 11.6667 5.83333C11.6667 2.61167 9.05501 0 5.83333 0C2.61167 0 0 2.61167 0 5.83333C0 9.05495 2.61167 11.6666 5.83333 11.6666Z" fill="#E79D0D"/>
<path fill-rule="evenodd" clip-rule="evenodd" d="M3.82219 5.94952C3.96162 5.8511 4.09284 5.74175 4.21313 5.62146C4.44004 5.39728 4.62594 5.13757 4.77083 4.85598V6.07528C4.77083 6.83255 5.18911 7.26997 5.89171 7.26997C6.61618 7.26997 7.18481 6.83255 7.18481 6.07528V3.5H8.13346V8.07372H7.17935V7.49687C7.02625 7.73198 6.58884 8.16667 5.74135 8.16667C4.48651 8.16667 3.81946 7.38479 3.81946 6.27485L3.82219 5.94952Z" fill="white"/>
<path d="M1.75 5.55585V6.47168C2.54828 6.47168 3.31649 6.15729 3.88513 5.59959C4.16398 5.32347 4.38815 4.99814 4.53852 4.63728C4.69161 4.27641 4.76816 3.89094 4.76816 3.5H3.83865C3.83865 3.77065 3.78398 4.03856 3.67736 4.28734C3.57074 4.53612 3.41764 4.76303 3.22627 4.9544C2.8326 5.33714 2.30223 5.55311 1.75 5.55585Z" fill="white"/>
</svg>
