<svg width="56" height="29" viewBox="0 0 56 29" fill="none" xmlns="http://www.w3.org/2000/svg">
<path d="M19.9954 8.29865C19.9954 3.67468 23.5623 0 28.0222 0C32.5147 0 36.094 3.6742 36.094 8.29865C35.8172 13.0887 32.3631 16.5535 28.0222 16.6209C23.5675 16.6209 19.9954 12.8887 19.9954 8.29865ZM9.45578 17.0936C12.3924 17.0936 14.7389 14.691 14.7389 11.6798C14.7389 8.63179 12.3924 6.21828 9.45578 6.21828C6.5192 6.21828 4.17266 8.63167 4.17266 11.6798C4.22005 14.9973 6.49117 16.9054 9.45578 17.0936ZM46.5443 17.0936C49.4808 17.0936 51.8274 14.691 51.8274 11.6798C51.8274 8.63179 49.4808 6.21828 46.5443 6.21828C43.6077 6.21828 41.2839 8.63167 41.2839 11.6798C41.328 14.7699 43.4637 17.0224 46.5443 17.0936ZM34.9827 15.9268C33.0884 17.5339 30.6532 18.504 28.0219 18.504C25.3966 18.504 22.998 17.515 21.1065 15.9032C17.0282 17.9213 14.0773 21.7281 14.0773 27.7959V29H41.9895V27.7959C41.9895 21.7512 39.0379 17.9354 34.9827 15.9268ZM15.4181 17.8891C15.0968 17.6565 14.7759 17.4187 14.4204 17.2271C13.0393 18.3209 11.3141 18.9767 9.45484 18.9767C7.60649 18.9767 5.8888 18.3326 4.51206 17.2507C1.87117 18.6431 0 21.1226 0 25.1474V28.9773C0.0109009 28.9848 0.0218003 28.9919 0.0327007 28.9994H12.3126V27.7953C12.3126 23.7993 13.5171 20.4791 15.4181 17.8891ZM55.9997 28.9538V25.1474C55.9997 21.1071 54.1215 18.6082 51.4876 17.2272C50.1094 18.3115 48.3952 18.9767 46.5449 18.9767C44.6879 18.9767 42.9822 18.3185 41.6021 17.2272C41.248 17.4169 40.9044 17.6363 40.5817 17.8656C42.4931 20.4589 43.688 23.7938 43.688 27.7954V28.9996H55.9327C55.955 28.984 55.9769 28.9693 55.9997 28.9538Z" fill="#A79CB8"/>
</svg>