<svg width="22" height="22" viewBox="0 0 22 22" fill="none" xmlns="http://www.w3.org/2000/svg">
<path d="M11.15 15.5V17.6" stroke="white" stroke-width="1.5" stroke-linecap="round" stroke-linejoin="round"/>
<path d="M6.15002 21H16.15V20C16.15 18.9 15.25 18 14.15 18H8.15002C7.05002 18 6.15002 18.9 6.15002 20V21Z" stroke="white" stroke-width="1.5" stroke-miterlimit="10"/>
<path d="M5.15002 21H17.15" stroke="white" stroke-width="1.5" stroke-linecap="round" stroke-linejoin="round"/>
<path d="M11 15C7.13 15 4 11.87 4 8V5C4 2.79 5.79 1 8 1H14C16.21 1 18 2.79 18 5V8C18 11.87 14.87 15 11 15Z" stroke="white" stroke-width="1.5" stroke-linecap="round" stroke-linejoin="round"/>
<path d="M4.47004 10.65C3.72004 10.41 3.06004 9.97 2.54004 9.45C1.64004 8.44998 1.04004 7.24998 1.04004 5.84998C1.04004 4.44998 2.14004 3.34998 3.54004 3.34998H4.19004C3.99004 3.80998 3.89004 4.31998 3.89004 4.84998V7.84998C3.89004 8.84998 4.10004 9.79 4.47004 10.65Z" stroke="white" stroke-width="1.5" stroke-linecap="round" stroke-linejoin="round"/>
<path d="M17.53 10.65C18.28 10.41 18.94 9.97 19.46 9.45C20.36 8.44998 20.96 7.24998 20.96 5.84998C20.96 4.44998 19.86 3.34998 18.46 3.34998H17.81C18.01 3.80998 18.11 4.31998 18.11 4.84998V7.84998C18.11 8.84998 17.9 9.79 17.53 10.65Z" stroke="white" stroke-width="1.5" stroke-linecap="round" stroke-linejoin="round"/>
</svg>
