<svg width="14" height="12" viewBox="0 0 14 12" fill="none" xmlns="http://www.w3.org/2000/svg">
<path d="M12 0H2C0.897333 0 0 0.897333 0 2V10C0 11.1027 0.897333 12 2 12H12C12.7353 12 13.3333 11.402 13.3333 10.6667V1.33333C13.3333 0.598 12.7353 0 12 0ZM2 10.6667C1.632 10.6667 1.33333 10.3673 1.33333 10V2C1.33333 1.63267 1.632 1.33333 2 1.33333H12V3.33333H8C7.26467 3.33333 6.66667 3.93133 6.66667 4.66667V7.33333C6.66667 8.06867 7.26467 8.66667 8 8.66667H12.0007V10.6667H2ZM12 4.66667V7.33333H8V4.66667H12Z" fill="#321C54"/>
</svg>
