<svg width="128" height="128" viewBox="0 0 128 128" fill="none" xmlns="http://www.w3.org/2000/svg">
<path d="M120 0H8C3.58172 0 0 3.58172 0 8V120C0 124.418 3.58172 128 8 128H120C124.418 128 128 124.418 128 120V8C128 3.58172 124.418 0 120 0Z" fill="#A09568"/>
<path d="M36.4777 128L15.0957 84.4315L28.6817 77.6695L53.3817 128H63.3507L52.8247 57.2405L67.8137 54.9805L78.6797 128H91.4377L96.6377 47.9785L111.766 48.9785L106.621 127.997" fill="white"/>
<path d="M39.4188 39.0535L18.1006 56.1406L25.6857 65.604L47.0039 48.5169L39.4188 39.0535Z" fill="white"/>
<path d="M67.7624 22.2624L64.0098 31.7793L84.8445 39.9947L88.5972 30.4779L67.7624 22.2624Z" fill="white"/>
<path d="M89.6451 90.0598C89.6451 92.6992 88.8624 95.2794 87.396 97.4739C85.9297 99.6685 83.8455 101.379 81.407 102.389C78.9685 103.399 76.2853 103.663 73.6966 103.148C71.1079 102.634 68.7301 101.363 66.8637 99.4962C64.9974 97.6299 63.7264 95.252 63.2115 92.6633C62.6966 90.0746 62.9609 87.3914 63.9709 84.9529C64.981 82.5145 66.6914 80.4302 68.886 78.9639C71.0806 77.4975 73.6607 76.7148 76.3001 76.7148C79.8394 76.7148 83.2338 78.1208 85.7364 80.6235C88.2391 83.1262 89.6451 86.5205 89.6451 90.0598Z" fill="#5A298B"/>
</svg>
