<svg width="88" height="16" viewBox="0 0 88 16" fill="none" xmlns="http://www.w3.org/2000/svg">
<path fill-rule="evenodd" clip-rule="evenodd" d="M38.3162 2.95327V4.56526H35.576V9.1705C35.576 10.1488 36.1469 10.638 37.0942 10.638C37.6065 10.6287 38.1125 10.5549 38.6032 10.4164L38.8531 12.0469C38.3871 12.2284 37.5663 12.3545 36.8196 12.3545C34.8755 12.3545 33.6535 11.2716 33.6535 9.40122V4.56526H31.9995V2.95327H33.6844V0H35.5513V2.95327H38.3162ZM27.7934 6.60794C26.6208 6.36799 26.1857 6.07881 26.1857 5.50354C26.1857 4.82368 26.8831 4.4299 28.2871 4.4299C29.2529 4.4299 30.3608 4.64217 31.1136 4.96826L31.3173 3.31935C30.5428 2.98403 29.3332 2.76254 28.1914 2.76254C25.8678 2.76254 24.3187 3.91309 24.3187 5.47585C24.3187 6.89712 25.1889 7.82309 26.8245 8.15225L28.1976 8.42912C29.398 8.66908 29.9009 9.00438 29.9009 9.62887C29.9009 10.3395 29.2498 10.6841 27.8582 10.6841C26.7658 10.6717 25.6858 10.4441 24.6798 10.0196L24.4484 11.6623C25.2507 12.0931 26.5683 12.3514 27.9816 12.3514C30.2373 12.3514 31.7648 11.4593 31.7648 9.59815C31.7648 7.99537 30.7588 7.2109 28.8703 6.82636L27.7934 6.60794ZM38.5758 7.55853C38.5758 4.86367 40.6865 2.76254 43.5131 2.76254C46.3397 2.76254 48.4504 4.86367 48.4504 7.55853C48.4504 10.2534 46.3428 12.3545 43.5162 12.3545C40.6896 12.3545 38.5789 10.2534 38.5789 7.55853H38.5758ZM40.4921 7.55853C40.4921 9.25662 41.7634 10.5703 43.5162 10.5703C45.269 10.5703 46.5372 9.25356 46.5372 7.55853C46.5372 5.86039 45.269 4.54681 43.5162 4.54681C41.7634 4.54681 40.4952 5.86039 40.4952 7.55853H40.4921ZM50.0425 2.95326L52.4493 6.1957L54.8593 2.95326H57.0657L53.6405 7.46007L57.1429 12.1607H54.9396L52.4493 8.71829L49.9622 12.1607H47.7559L51.2582 7.46007L47.8329 2.95326H50.0425ZM15.9562 4.21148C16.6443 3.33781 17.6904 2.76254 19.2672 2.76254C21.9087 2.76254 23.933 4.77753 23.933 7.60774C23.933 10.438 21.9087 12.3545 19.2672 12.3545C17.6904 12.3545 16.6443 11.7793 15.9562 10.9056V16H14.04V2.95635H15.9562V4.21148ZM15.9685 7.60774C15.9685 9.30591 17.2553 10.6471 19.0359 10.6471C20.8256 10.6471 22.0167 9.30285 22.0198 7.60774C22.0198 5.90962 20.8287 4.4699 19.039 4.4699H19.0359C17.2461 4.47297 15.9685 5.90962 15.9685 7.60774ZM4.18742 7.88767C4.46824 7.6908 4.73361 7.4693 4.97739 7.22626C5.43409 6.77405 5.81364 6.25415 6.10371 5.68503V8.13994C6.10371 9.66581 6.94613 10.5456 8.36869 10.5456C9.83135 10.5456 10.9823 9.66581 10.9823 8.13994V2.95326H12.8955V12.1607H10.97V11.0009C10.6614 11.4716 9.77889 12.3514 8.06628 12.3514C5.52975 12.3514 4.18434 10.7794 4.18434 8.54294L4.18742 7.88767ZM0 8.94284V7.09705C1.11706 7.09397 2.18783 6.65713 2.98396 5.88498C3.37278 5.50044 3.68445 5.04514 3.89736 4.5437C4.11028 4.03918 4.22137 3.50082 4.22137 2.95632H6.10062C6.10062 3.74385 5.94324 4.52216 5.63467 5.24818C5.32918 5.97419 4.87864 6.63252 4.31394 7.18626C3.16294 8.31219 1.61388 8.94284 0 8.94284Z" fill="white"/>
<path d="M86.3418 8.07209C85.829 7.54636 85.1567 7.20453 84.4293 7.09964C83.7019 6.99477 82.9602 7.13278 82.3194 7.49224C80.7768 8.35391 78.8277 8.81784 76.8345 8.81784C74.7983 8.81784 72.8213 8.33073 71.2672 7.44464C70.6318 7.07906 69.8933 6.93296 69.1663 7.02899C68.4392 7.12503 67.7642 7.45785 67.2459 7.97583C66.8876 8.33467 66.6173 8.7714 66.4561 9.25184C66.2949 9.73228 66.2472 10.2434 66.3166 10.7454C66.3828 11.2463 66.5639 11.7252 66.846 12.1447C67.1281 12.5642 67.5035 12.9128 67.9428 13.1636C70.5168 14.6492 73.5915 15.4286 76.8345 15.4286C80.0113 15.4286 83.0384 14.6724 85.5892 13.2401C86.0282 12.9945 86.4048 12.6512 86.6896 12.2369C86.9744 11.8226 87.1599 11.3483 87.2315 10.8509C87.3072 10.3506 87.2663 9.83967 87.112 9.35765C86.9577 8.8757 86.6941 8.43582 86.3418 8.07209ZM86.0839 10.6828C86.0386 11.005 85.9195 11.3124 85.7357 11.5812C85.552 11.8499 85.3087 12.0727 85.0246 12.2322C82.6423 13.5729 79.8116 14.2688 76.8345 14.2688C73.7947 14.2688 70.921 13.5393 68.5224 12.1592C68.2376 11.9963 67.9944 11.77 67.8116 11.4978C67.6289 11.2256 67.5116 10.9149 67.4689 10.59C67.4239 10.264 67.455 9.93212 67.5595 9.62016C67.6641 9.30812 67.8394 9.02443 68.0717 8.79114C68.2718 8.59051 68.5096 8.43144 68.7716 8.32312C69.0336 8.21487 69.3145 8.15945 69.598 8.16024C69.9816 8.16032 70.3584 8.26067 70.691 8.45132C72.4171 9.43603 74.5997 9.97763 76.8345 9.97763C79.0228 9.97763 81.1718 9.45341 82.8839 8.50236C83.3007 8.26706 83.7837 8.17582 84.2579 8.24294C84.732 8.31013 85.1706 8.53179 85.5055 8.87355C85.7352 9.11 85.9071 9.39648 86.0074 9.71031C86.1078 10.0242 86.134 10.3571 86.0839 10.6828Z" fill="white"/>
<path d="M70.7758 9.56708C69.864 9.14148 69.4795 9.03825 69.1937 9.64941C68.9452 10.1806 69.3529 10.4207 70.1602 10.8823C70.6817 11.1792 70.7479 11.1955 70.7177 11.2616C70.6724 11.3555 70.6201 11.3253 70.1241 11.0934C69.5956 10.8475 69.4272 10.7733 69.4272 10.6434C69.3401 10.6028 68.908 10.3407 68.908 10.3407C68.6269 10.9426 68.7431 11.1282 69.8372 11.6373C71.0232 12.1905 71.2741 12.172 71.5215 11.6431C71.7689 11.1143 71.5319 10.9809 70.4285 10.3523C69.929 10.067 69.893 10.0472 69.9127 9.99045C69.9487 9.91386 70.0045 9.90926 70.5284 10.154C71.0696 10.4068 71.2996 10.5193 71.2311 10.6538C71.3473 10.7083 71.7643 10.9368 71.7643 10.9368C72.0384 10.3395 71.8583 10.0728 70.7758 9.56708Z" fill="white"/>
<path d="M73.2871 11.3033L74.4103 11.4251L74.2442 12.9421L74.9969 13.0244L75.1619 11.5074L76.2839 11.6292L76.3664 10.8777L73.3696 10.5529L73.2871 11.3033Z" fill="white"/>
<path d="M78.0994 10.8788L77.3049 13.2401L78.1656 13.2331L78.3073 12.7588L79.4306 12.6428L79.6629 13.0777L80.5096 12.92L79.2517 10.7466L78.0994 10.8788ZM78.5117 12.0769L78.7441 11.4564L79.0925 12.0189L78.5117 12.0769Z" fill="white"/>
<path d="M83.2256 9.545L83.7436 10.7929L82.2092 9.96486L81.2358 10.3233L82.1105 12.4747L82.8155 12.2033L82.2824 10.9159L83.8818 11.7788L84.7983 11.3624L83.8935 9.211L83.2256 9.545Z" fill="white"/>
<path d="M71.553 5.00215L72.8261 3.73102L74.0992 5.00215L75.3316 3.77277L74.0585 2.50166L75.3316 1.23053L74.0992 0L72.8261 1.27112L71.553 0L70.3218 1.23053L71.5948 2.50166L70.3218 3.77277L71.553 5.00215Z" fill="white"/>
<path d="M81.2359 4.53122C82.3585 4.53122 83.2686 3.62254 83.2686 2.5016C83.2686 1.38068 82.3585 0.471985 81.2359 0.471985C80.1132 0.471985 79.2031 1.38068 79.2031 2.5016C79.2031 3.62254 80.1132 4.53122 81.2359 4.53122Z" fill="white"/>
<path d="M60.5715 9.14287L61.5563 7.41519L60.6078 5.71429H60.9551L61.7118 7.11385H61.7273L62.4996 5.71429H62.8313L61.888 7.3884L62.8572 9.14287H62.51L61.7273 7.69644H61.717L60.9032 9.14287H60.5715Z" fill="white"/>
</svg>
